<svg xmlns="http://www.w3.org/2000/svg" width="100" height="27.186" viewBox="0 0 100 27.186">
  <g id="グループ化_1910" data-name="グループ化 1910" transform="translate(-56.083 50.495)">
    <path id="パス_276" data-name="パス 276" d="M56.083-47.687h3.923l3.972,9.6,4.385-9.6h3.932L62.718-26.8H58.752L61.9-33.532Z" transform="translate(0 3.49)" fill="#fff"/>
    <path id="パス_277" data-name="パス 277" d="M79.14-50.495a2.348,2.348,0,0,1,1.732.731,2.438,2.438,0,0,1,.722,1.772,2.394,2.394,0,0,1-.715,1.749,2.308,2.308,0,0,1-1.709.724,2.361,2.361,0,0,1-1.747-.738,2.471,2.471,0,0,1-.72-1.792,2.355,2.355,0,0,1,.715-1.729A2.342,2.342,0,0,1,79.14-50.495Zm-1.918,6.3H81.06V-28.9H77.222Z" transform="translate(3.627 0)" fill="#fff"/>
    <path id="パス_278" data-name="パス 278" d="M92.278-47.687H96.2l3.972,9.6,4.383-9.6h3.934L98.91-26.8H94.947l3.145-6.733Z" transform="translate(2.987 3.49)" fill="#fff"/>
    <path id="パス_279" data-name="パス 279" d="M113.311-47.687h3.878v7.366a10.186,10.186,0,0,0,.3,2.988,2.593,2.593,0,0,0,.951,1.3,2.722,2.722,0,0,0,1.613.464,2.824,2.824,0,0,0,1.631-.458,2.687,2.687,0,0,0,.991-1.341,10.327,10.327,0,0,0,.24-2.826v-7.494h3.838v6.482a15.9,15.9,0,0,1-.633,5.482,5.974,5.974,0,0,1-2.277,2.761,6.959,6.959,0,0,1-3.824.964,6.776,6.776,0,0,1-4.071-1.126,5.946,5.946,0,0,1-2.185-3.133,19,19,0,0,1-.449-5.062Z" transform="translate(7.129 3.49)" fill="#fff"/>
    <path id="パス_280" data-name="パス 280" d="M133.855-47.469h3.838V-45.9a9.214,9.214,0,0,1,2.366-1.53,5.71,5.71,0,0,1,2.169-.431,5.252,5.252,0,0,1,3.86,1.588,5.456,5.456,0,0,1,1.332,3.992v10.107h-3.795v-6.7a16.96,16.96,0,0,0-.244-3.636,2.5,2.5,0,0,0-.857-1.368,2.381,2.381,0,0,0-1.507-.471,2.821,2.821,0,0,0-2,.778,4.147,4.147,0,0,0-1.155,2.155,17.1,17.1,0,0,0-.17,3.1v6.134h-3.838Z" transform="translate(8.663 3.273)" fill="#fff"/>
  </g>
</svg>
